<svg viewBox="0 0 78.344 67.029" xmlns:xlink="http://www.w3.org/1999/xlink" xmlns="http://www.w3.org/2000/svg"><defs><linearGradient id="a"><stop style="stop-color:#ffe300;stop-opacity:1" offset="0"/><stop style="stop-color:#ffff08;stop-opacity:1" offset="1"/></linearGradient><linearGradient id="b"><stop style="stop-color:#3df685;stop-opacity:1" offset="0"/><stop style="stop-color:#005f16;stop-opacity:1" offset="1"/></linearGradient><linearGradient xlink:href="#a" id="e" x1="98.1" y1="94.894" x2="104.928" y2="94.894" gradientUnits="userSpaceOnUse" gradientTransform="rotate(-49.673 97.985 75.173)"/><linearGradient xlink:href="#a" id="d" x1="91.452" y1="65.567" x2="98.34" y2="65.567" gradientUnits="userSpaceOnUse" gradientTransform="rotate(-49.673 97.985 75.173)"/><radialGradient xlink:href="#b" id="c" cx="98.191" cy="106.317" fx="98.191" fy="106.317" r="4.269" gradientTransform="matrix(1 0 0 1.00001 -91.883 48.174)" gradientUnits="userSpaceOnUse" spreadMethod="reflect"/></defs><g transform="translate(-59.32 -42.095)"><path style="fill:#1fec08;fill-opacity:.688313;stroke:#2c5f2e;stroke-width:.796999;stroke-linecap:round;stroke-linejoin:round;stroke-opacity:1;paint-order:stroke fill markers" transform="rotate(-49.673)" d="M-2.442 86.97h17.335v67.493H-2.442z"/><a transform="rotate(-49.673 97.985 75.173)"><path style="fill:#1eec07;fill-opacity:.690196;stroke:#23c013;stroke-width:3.01228;stroke-linecap:round;stroke-linejoin:round;stroke-opacity:1;paint-order:stroke fill markers" d="m372.988 110.72-23.902 48.767-29.884-44.784L288.53 71.13l53.337-4.232 54.17-4.385z" transform="matrix(-.16027 -.01158 .01223 -.15175 152.15 52.866)"/></a><path style="fill:#efd730;fill-opacity:1;stroke:#9c853a;stroke-width:.746955;stroke-linecap:round;stroke-linejoin:round;paint-order:stroke fill markers" transform="rotate(-49.673)" d="M-3.002 154.963h18.209v4.397H-3.002z"/><path style="fill:#a6a9ac;fill-opacity:1;stroke:#767574;stroke-width:.264583px;stroke-linecap:butt;stroke-linejoin:miter;stroke-opacity:1" d="m119.547 105.419 3.073 2.608s-3.72 2.71-7.702-.948c-3.983-3.658-4.17-9.13-4.17-9.13zm11.783-13.882 3.073 2.609s2.07-4.11-2.186-7.446c-4.256-3.336-9.686-2.632-9.686-2.632z"/><path style="fill:#a6a9ac;fill-opacity:1;stroke:#767574;stroke-width:.753743;stroke-linecap:round;stroke-linejoin:round;stroke-opacity:1;paint-order:stroke fill markers" transform="rotate(-49.673)" d="M5.069 159.7H7.46v14.05H5.069z"/><circle style="fill:url(#c);fill-opacity:1;stroke:#767574;stroke-width:.796999;stroke-linecap:round;stroke-linejoin:round;stroke-opacity:1;paint-order:stroke fill markers" cx="6.308" cy="154.492" transform="rotate(-49.673)" r="3.871"/><path style="fill:none;stroke:url(#d);stroke-width:.264583px;stroke-linecap:butt;stroke-linejoin:miter;stroke-opacity:1" d="m59.555 42.332 44.81 37.964 2.724 11 10.694 8.98"/><path style="fill:none;stroke:url(#e);stroke-width:.264583px;stroke-linecap:butt;stroke-linejoin:miter;stroke-opacity:1" d="m104.364 80.296 11.209 1.007 10.71 8.958"/></g></svg>