<svg viewBox="0 0 43.847 92.181" xmlns="http://www.w3.org/2000/svg"><defs><filter style="color-interpolation-filters:sRGB" id="a" x="-.835" y="-.888" width="2.67" height="2.776"><feGaussianBlur stdDeviation="9.622"/></filter></defs><g style="display:inline"><g style="display:inline;opacity:1" transform="translate(-81.264 -35.896)"><circle style="fill:#c5fdfb;fill-opacity:1;stroke:#281d4c;stroke-width:.582;stroke-linecap:round;stroke-linejoin:round;stroke-miterlimit:4;stroke-dasharray:none;stroke-opacity:1;paint-order:stroke fill markers" cx="101.677" cy="57.088" r="12.723"/><path style="fill:#c5fdfb;fill-opacity:1;stroke:#281d4c;stroke-width:.43421;stroke-linecap:round;stroke-linejoin:round;stroke-miterlimit:4;stroke-dasharray:none;stroke-opacity:1;paint-order:stroke fill markers" transform="rotate(-10.289)" d="M88.337 87.304h1.685v57.772h-1.685z"/></g><path style="fill:#fff;fill-opacity:1;stroke:#281d4c;stroke-width:.264583px;stroke-linecap:butt;stroke-linejoin:miter;stroke-opacity:1" d="m100.184 53.936-6.39-5.169c.488-.74.673-1.104 2.831-2.444 1.333-.678 2.7-.987 4.107-.867l1.04 7.899c-.784.013-1.163.248-1.588.58zm2.824-.527c.358.01.598.236.85.44l4.581-5.699c-1.365-1.7-3.13-2.533-5.347-2.39zm-4.021 1.198c-.752.484-1.032 1.343-1.23 2.102L90.37 57c-.018-2.58.523-5.047 2.441-7.236zm-1.217 3.244c.326 1.116.72 2.271 1.865 3.038l-5.094 5.36c-2.037-2.262-3.965-4.561-4.301-7.418zm-1.409 9.278c2.071 1.184 3.974 1.728 5.657 1.426l-.263-7.056c-.653.045-.893-.053-1.184-.134zm6.557-5.589 1.554 6.902c2.033-.469 4.17-1.788 6.473-3.984l-5.76-4.61c-.559.803-1.263 1.43-2.267 1.692zm3.19-3.302 5.547 4.38c1.183-1.52 1.695-3.547 2.034-5.751l-7.442.307c.009.485-.047.817-.14 1.064zm-.183-2.02 7.28-1.267a13.18 13.18 0 0 0-3.105-6.144l-4.782 5.856c.353.454.509 1.101.607 1.555z" transform="translate(-81.264 -35.896)"/></g><g style="mix-blend-mode:normal;filter:url(#a)" transform="translate(-81.264 -35.896)"><ellipse style="fill:#fffd00;fill-opacity:.870516;stroke:none;stroke-width:.383123;stroke-linecap:round;stroke-linejoin:round;stroke-miterlimit:4;stroke-dasharray:none;stroke-opacity:1;paint-order:stroke fill markers" cx="101.43" cy="56.101" rx="13.83" ry="13.005"/></g></svg>