<svg viewBox="0 0 82.6387 82.6387" xmlns:xlink="http://www.w3.org/1999/xlink" xmlns="http://www.w3.org/2000/svg"><defs><linearGradient id="c"><stop style="stop-color:#fff;stop-opacity:1" offset="0"/><stop style="stop-color:#ff49b1;stop-opacity:1" offset="1"/></linearGradient><linearGradient id="b"><stop style="stop-color:#bc00cf;stop-opacity:1" offset="0"/><stop style="stop-color:#bc91cf;stop-opacity:1" offset="1"/></linearGradient><linearGradient id="a"><stop style="stop-color:#003ceb;stop-opacity:1" offset="0"/><stop style="stop-color:#00cfeb;stop-opacity:1" offset="1"/></linearGradient><linearGradient xlink:href="#a" id="f" x1="157.4724" y1="173.7461" x2="166.486" y2="160.6943" gradientUnits="userSpaceOnUse"/><linearGradient xlink:href="#b" id="g" x1="144.2561" y1="153.1722" x2="156.8726" y2="148.6946" gradientUnits="userSpaceOnUse"/><radialGradient xlink:href="#c" id="d" cx="171.0526" cy="149.4328" fx="171.0526" fy="149.4328" r="30" gradientUnits="userSpaceOnUse" gradientTransform="matrix(1.06758 .009 -.00915 1.08654 -10.1925 -14.4694)"/><filter style="color-interpolation-filters:sRGB" id="e" x="-.0263" y="-.0272" width="1.0526" height="1.0544"><feGaussianBlur stdDeviation=".5964"/></filter></defs><g style="display:inline;opacity:1" transform="translate(-129.7333 -108.1134)"><circle style="fill:url(#d);fill-opacity:1;stroke:none;stroke-width:1.85509;stroke-linecap:round;stroke-linejoin:round;paint-order:stroke fill markers;filter:url(#filter30290)" cx="171.0526" cy="149.4328" r="30"/></g><g style="mix-blend-mode:normal;filter:url(#e)" transform="translate(-129.7333 -108.1134)"><path style="fill:#0072eb;fill-opacity:1;stroke:none;stroke-width:.264583px;stroke-linecap:butt;stroke-linejoin:miter;stroke-opacity:1" d="M154.6378 137.128s-1.62-.2343-2.8035.6678c-1.1835.9021-2.3025 1.9968-1.4409 2.4253.8617.4285 2.6736.1692 3.036.1036.3623-.0656.8229.6139-.5081.6952-1.331.0813-3.9213.6003-4.3105-1.6534-.3891-2.2536-1.6407-.3324-1.6407-.3324s-2.244 1.132-1.1773-.949c1.0666-2.0808.9205-2.6029 1.7333-1.6573.8128.9456 1.2255.9686 1.0874-.3733-.1382-1.3418 1.6595-.267 2.1708.002.5113.2693 2.878 1.1041 4.5559-.7395 1.6778-1.8435 2.5162-3.577.7097-2.908s-2.1876.9096-4.4288.2782c-2.2413-.6314-3.8643-.2446-2.7117-.8768 1.1527-.6322 3.3358.4913 4.036-.7261.7003-1.2175 1.2072-2.1717 3.0774-2.1284 1.8702.0432 1.5772 1.0609 2.9993.1955 1.4222-.8653 3.0848-1.262 2.497-.7206-.5878.5414-3.8433 2.6508-1.2948 1.8749 2.5485-.776 5.0604-.1498 2.3307.5929-2.7297.7426-3.9117.4755-3.4997 1.572.4121 1.0964-.4943.2935-1.1084 1.1483-.614.8548-1.8455 1.857-.8418 2.2096 1.0036.3527 1.9443 1.067 3.0979.5445 1.1536-.5226 4.9962-1.2495 3.3493-.5016-1.647.7479-2.34 2.542-4.128 1.7655-1.788-.7765-2.7823-1.1825-2.7823.2627 0 1.4453-.4761 3.1992.3101 3.6809.7863.4817.444 2.0691-.2157 1.0958-.6599-.9733-1.957-2.6997-1.6163-3.6211.3408-.9214.5848-1.5404-.4823-1.9274z"/><path style="fill:#003ceb;fill-opacity:1;stroke:none;stroke-width:.264583px;stroke-linecap:butt;stroke-linejoin:miter;stroke-opacity:1" d="M183.028 123.5124s1.7621 1.9087 1.136 3.7582c-.626 1.8495-1.9809 2.3935-3.3306 1.9812-1.3498-.4123-1.8018.8892-.4839 1.0315 1.318.1423 2.9324-.7152 3.0956.6596.1632 1.3748.8974 4.4154 2.6413 2.006 1.7439-2.4093 4.9983-4.6224 4.3116-3.1463-.6867 1.4762-5.0124 4.3706-4.5965 5.4275.416 1.057 1.3371 4.343 4.1642 3.9797 2.827-.3633 3.266.0922 2.5815 2.0005-.6845 1.9084 1.3043 3.8147 2.7793 1.7845 1.475-2.0303 3.154-4.959.9535-5.6957-2.2005-.7367-6.1239-1.2034-4.5669-3.7898 1.557-2.5863 1.1272-4.1982-.6118-4.6175-1.739-.4193-5.241 3.6354-5.5138 3.7819-.2728.1465-1.7916-1.3102-.2208-2.4552 1.5709-1.1451 5.3447-3.255 2.9366-2.3633-2.4082.8917-4.5469 1.198-3.9011-.0598.6457-1.2578 2.1241-1.4001 1.058-2.6829-1.066-1.2827-2.9093-3.266-2.4322-1.6001z"/><path style="fill:url(#f);fill-opacity:1;stroke:none;stroke-width:.264583px;stroke-linecap:butt;stroke-linejoin:miter;stroke-opacity:1" d="M153.0902 170.614s-3.7527-5.1386-1.8259-7.7263c1.9268-2.5878 9.9263-11.9322 8.7124-7.8826-1.214 4.0496-5.8179 5.7322-4.6064 7.5396 1.2115 1.8074 2.8703 7.8214 2.1568 8.8387-.7135 1.0174 2.4962 4.4579 3.4754 1.967.9793-2.491-.1985-3.2115-1.0517-5.1284-.8533-1.9168-.4832-8.159 3.3277-5.0558 3.811 3.103 3.8326 1.822 6.313.6479 2.4803-1.1742 9.7358-2.4877 7.2333 2.7058-2.5026 5.1934-1.687 8.7744-8.2732 8.9268-6.5862.1524-8.8561.1384-9.429-.2132-.573-.3516-6.0324-4.6196-6.0324-4.6196z"/><path style="fill:#bc00cf;fill-opacity:1;stroke:none;stroke-width:.264583px;stroke-linecap:butt;stroke-linejoin:miter;stroke-opacity:1" d="m184.48 164.4878 1.2635.6323s4.3332 4.1604 7.3512-2.7388c3.018-6.8992 1.4041-19.9346-.6868-15.0686-2.091 4.866-2.1156 15.2472-4.4426 11.6557-2.327-3.5915-9.0692-10.2247-8.2492-4.5962.82 5.6284-6.1496 21.6327-2.7447 20.6681 3.405-.9645 19.5127-4.9342 14.199-5.6032-5.3137-.669-12.0791 4.6121-11.0743 1.4435 1.005-3.1687 1.5887-1.0374 4.1906-1.5182 2.6018-.4809 3.6116-2.086 1.161-2.7261-2.4506-.6401-2.0376-2.1404-.9677-2.1485z"/><path style="fill:url(#g);fill-opacity:1;stroke:none;stroke-width:.264583px;stroke-linecap:butt;stroke-linejoin:miter;stroke-opacity:1" d="m151.2373 147.7857-5.0557-3.1938s-3.958-.7395-3.0667 2.9773c.8912 3.7169-2.741 8.7388 3.7967 7.4404 6.5376-1.2983 15.2523-1.532 10.6271-4.9188-4.625-3.3868-1.86 2.702-5.7592 2.7826-3.8992.0806-.2995-3.2681 1.6333-5.0462 1.933-1.778.5633-2.4455-2.1755-.0415z"/><path style="fill:#ff3aff;fill-opacity:1;stroke:none;stroke-width:.264583px;stroke-linecap:butt;stroke-linejoin:miter;stroke-opacity:1" d="M174.7119 125.2576s-5.5023-3.7385-7.8662-.6611c-2.364 3.0773-4.2552 7.3035 1.8767 7.8998 6.1319.5963 5.173 1.4223 5.4428 2.693.2698 1.2708 5.066 5.1254 3.4053 2.6159-1.6607-2.5096-4.6032-5.2153-2.3797-4.5392 2.2235.676 8.9246 4.5881 7.7496 2.7882-1.175-1.7999-3.5273-.3603-4.7935-2.7235-1.2661-2.3632 3.2928 1.2807 1.7642-.7375-1.5285-2.0183-4.5662-4.0888-7.0895-3.134-2.5233.9549-2.7342-2.4713-1.0346-2.3866 1.6997.0847 5.6593 3.6546 6.1739 1.7648.5146-1.8898 5.7196-6.911 2.5968-5.7962-3.1228 1.1148-3.7608 3.8839-5.8458 2.2164z"/></g></svg>