<svg viewBox="0 0 60.626 54.604" xmlns:xlink="http://www.w3.org/1999/xlink" xmlns="http://www.w3.org/2000/svg"><defs><radialGradient xlink:href="#a" id="d" cx="161.717" cy="102.317" fx="161.717" fy="102.317" r="8.676" gradientTransform="matrix(1 0 0 1.72166 0 -73.838)" gradientUnits="userSpaceOnUse"/><radialGradient xlink:href="#a" id="e" cx="151.366" cy="103.134" fx="151.366" fy="103.134" r=".778" gradientTransform="matrix(1 0 0 5.31566 0 -445.09)" gradientUnits="userSpaceOnUse"/><radialGradient xlink:href="#a" id="c" cx="141.609" cy="102.471" fx="141.609" fy="102.471" r="8.356" gradientTransform="matrix(1 0 0 1.73097 0 -74.903)" gradientUnits="userSpaceOnUse"/><linearGradient id="a"><stop style="stop-color:#0000fe;stop-opacity:1" offset="0"/><stop style="stop-color:#0700fe;stop-opacity:1" offset="1"/></linearGradient><filter style="color-interpolation-filters:sRGB" id="b" x="-.511" y="-.498" width="2.021" height="1.996"><feGaussianBlur stdDeviation="3.512"/></filter></defs><g style="mix-blend-mode:normal;filter:url(#b)" transform="translate(-122.837 -75.215)"><ellipse style="fill:#4aa8ee;fill-opacity:1;stroke-width:.582001;stroke-linecap:round;stroke-linejoin:round;paint-order:stroke fill markers" cx="139.518" cy="92.101" rx="8.253" ry="8.458"/><ellipse style="fill:#4af1ee;fill-opacity:1;stroke-width:.582001;stroke-linecap:round;stroke-linejoin:round;paint-order:stroke fill markers" cx="149.13" cy="99.019" rx="8.253" ry="8.458"/><ellipse style="fill:#4aaeee;fill-opacity:1;stroke-width:.582001;stroke-linecap:round;stroke-linejoin:round;paint-order:stroke fill markers" cx="142.833" cy="103.4" rx="8.253" ry="8.458"/><ellipse style="fill:#4aaeee;fill-opacity:1;stroke-width:.582001;stroke-linecap:round;stroke-linejoin:round;paint-order:stroke fill markers" cx="146.013" cy="111.891" rx="8.253" ry="8.458"/><ellipse style="mix-blend-mode:normal;fill:#4aaeee;fill-opacity:1;stroke-width:.582001;stroke-linecap:round;stroke-linejoin:round;paint-order:stroke fill markers;filter:url(#b)" cx="157.906" cy="110.917" rx="8.253" ry="8.458" transform="matrix(1.03525 0 0 .9638 -5.284 3.7)"/><ellipse style="fill:#7ddaee;fill-opacity:1;stroke-width:.582001;stroke-linecap:round;stroke-linejoin:round;paint-order:stroke fill markers" cx="157.328" cy="109.732" rx="8.253" ry="8.458"/><ellipse style="fill:#0080d8;fill-opacity:1;stroke-width:.582001;stroke-linecap:round;stroke-linejoin:round;paint-order:stroke fill markers" cx="161.616" cy="97.304" rx="8.253" ry="8.458"/><ellipse style="fill:#4aa4ee;fill-opacity:1;stroke-width:.582001;stroke-linecap:round;stroke-linejoin:round;paint-order:stroke fill markers" cx="166.782" cy="93.282" rx="8.253" ry="8.458"/><ellipse style="fill:#e1ffff;fill-opacity:1;stroke:#0000fe;stroke-width:.658786;stroke-linecap:round;stroke-linejoin:round;stroke-opacity:1;paint-order:stroke fill markers" cx="150.722" cy="102.737" rx="5.842" ry="6.348"/></g><g style="mix-blend-mode:luminosity"><path style="fill:#f2f0fc;fill-opacity:1;stroke:url(#c);stroke-width:.264583px;stroke-linecap:butt;stroke-linejoin:miter;stroke-opacity:1" d="M147.38 94.22c.777 2.196 2.049 4.393 2.33 6.59l.122 12.794c-.77.144-1.467.404-2.616-.06-1.993 6.07-2.042 2.221-2.4-.046-1.897 3.013-2.368 1.619-2.608-.488-.117-2.475.662-4.776 3.425-6.692-.809-.935-3.02-2.194-5.732-3.568-1.542-1.101-3.776-2.605-2.305-5.577l1.423-1.606c-6.409-4.267-8.424-7.287-.3-7.427 4.97.796 7.935 4.126 8.66 6.08z" transform="translate(-122.837 -75.215)"/><path style="fill:#f2f0fc;fill-opacity:1;stroke:url(#d);stroke-width:.264583px;stroke-linecap:butt;stroke-linejoin:miter;stroke-opacity:1" d="M153.305 107.314c-.028-2.179-.242-5.05-.052-6.39.533-3.757 2.643-7.243 4.666-9.075 1.421-.99 2.307-1.695 5.192-2.964 7.868-2.925 10.173-1.465 2.14 7.218-1.06 1.097.032.424.346.391 7.785-2.265 4.254 2.442.671 4.787-2.666 1.98-5.27 3.685-7.751 4.856 3.008 2.348 3.352 3.598 3.696 4.848.29 3.967.095 6.612-3.25.634-.506-.919-.742-.43-1.03-.217.634 5.073.623 8.558-2.306 2.541.31-1.103-.125-.726-.623-.224-.504.453-1.016 1.468-1.483-.704z" transform="translate(-122.837 -75.215)"/><path style="fill:#f2f0fc;fill-opacity:1;stroke:url(#e);stroke-width:.264583px;stroke-linecap:butt;stroke-linejoin:miter;stroke-opacity:1" d="M151.86 99.859c-.336-.884-.701-1.066-1.121.023-.015 4.42-.06 4.728.078 6.509.455.965.816.99 1.194.107-.083-5.474-.077-5.568-.152-6.64z" transform="translate(-122.837 -75.215)"/></g></svg>