<svg viewBox="0 0 91.73 71.982" xmlns:xlink="http://www.w3.org/1999/xlink" xmlns="http://www.w3.org/2000/svg"><defs><linearGradient id="b"><stop style="stop-color:#bc4dc8;stop-opacity:1" offset="0"/><stop style="stop-color:#aa0568;stop-opacity:1" offset="1"/></linearGradient><linearGradient id="a"><stop style="stop-color:#51411d;stop-opacity:1" offset="0"/><stop style="stop-color:#7b5d1a;stop-opacity:1" offset="1"/></linearGradient><linearGradient xlink:href="#a" id="d" x1="99.632" y1="90.006" x2="106.445" y2="68.576" gradientUnits="userSpaceOnUse"/><linearGradient xlink:href="#a" id="c" x1="137.691" y1="106.027" x2="159.634" y2="92.981" gradientUnits="userSpaceOnUse"/><radialGradient xlink:href="#b" id="e" cx="118.107" cy="61.912" fx="118.107" fy="61.912" r="16.974" gradientTransform="matrix(.93357 -.0806 .06992 .80986 3.516 21.292)" gradientUnits="userSpaceOnUse"/></defs><path style="fill:#daffff;fill-opacity:1;stroke:none;stroke-width:.264583px;stroke-linecap:butt;stroke-linejoin:miter;stroke-opacity:1" d="m118.384 116.081 40.641-22.375-9.828-11.48-34.752 19.742 2.5 13.507z" transform="translate(-68.795 -45.422)"/><path style="fill:#dace90;fill-opacity:1;stroke:#000;stroke-width:.264583px;stroke-linecap:butt;stroke-linejoin:miter;stroke-opacity:1" d="M116.681 111.896s25.127-13.236 28.522-15.252c3.394-2.016 11.545-5.61 11.545-5.61s1.292-1.38.102-1.963c-1.19-.584-39.314 17.803-39.314 17.803l-1.66 4.566zm0 0-.544.97 20.473-10.455s11.113-5.687 13.016-6.465c1.904-.779 8.157-3.707 8.157-3.707s.326-1.182-1.035-1.205" transform="translate(-68.795 -45.422)"/><path style="fill:#dace90;fill-opacity:1;stroke:#000;stroke-width:.264583px;stroke-linecap:butt;stroke-linejoin:miter;stroke-opacity:1" d="m116.137 112.866.327 1.272 17.225-8.795s20.569-10.015 22.237-10.755c1.668-.74 2.103-1.265 2.103-1.265l.65-.714-.896-.37" transform="translate(-68.795 -45.422)"/><path style="fill:#dace90;fill-opacity:1;stroke:#000;stroke-width:.264583px;stroke-linecap:butt;stroke-linejoin:miter;stroke-opacity:1" d="m116.464 114.138.481 1.337 8.972-4.567 32.05-16.747 1.058-.455-.347-1.097m-.912-7.061-1.954.905s3.84 2.047.27 2.865c-3.568.818-17.252 8.549-20.68 10.591-3.43 2.042-15.237 9.52-17.671 10.177-2.434.657-.075-1.644-.075-1.644" transform="translate(-68.795 -45.422)"/><g style="display:inline"><path style="fill:none;stroke:#000;stroke-width:.264583px;stroke-linecap:butt;stroke-linejoin:miter;stroke-opacity:1" d="m129.505 63.928-1.008-.959-.563.415-1.768-2.18s-.637.16-1.224-.107c-.695-.315-1.113-1.304-.45-2.058.639-.725 1.41-.54 1.913-.06a1.92 1.92 0 0 1 .564 1.187l2.945 1.674-.412.417.965.864z" transform="translate(-68.795 -45.422)"/><path style="fill:#dace90;fill-opacity:1;stroke:#000;stroke-width:.264583px;stroke-linecap:butt;stroke-linejoin:miter;stroke-opacity:1" d="m150.5 79.8 7.266 5.748s.815.952-1.7 1.807c-2.517.855-16.51 7.897-19.881 10.216-3.37 2.32-13.185 7.845-14.465 8.568-1.28.723-4.064 2.303-4.064 2.303l.924-1.514" transform="translate(-68.795 -45.422)"/></g><g style="display:inline;opacity:1"><path style="fill:none;stroke:#000;stroke-width:.264583px;stroke-linecap:butt;stroke-linejoin:miter;stroke-opacity:1" d="M75.863 69.182c12.842 12.37 19.906 18.203 42.717 37.746" transform="translate(-68.795 -45.422)"/><path style="fill:url(#c);fill-opacity:1;stroke:#000;stroke-width:.264583px;stroke-linecap:butt;stroke-linejoin:miter;stroke-opacity:1" d="m118.384 116.081 5.743-3.281s23.375-11.677 34.016-18.013c.277-.165.193-1.008.045-2.341-.068-.613-1.073-1.119-1.066-1.413.014-.523.162-.683.442-.728 1.105-.176 2.548 2.185 2.548 2.185s1.297 2.125-1.686 3.749c-4.05 2.205-39.476 20.486-39.476 20.486s-2.145 1.346-3.782-.181" transform="translate(-68.795 -45.422)"/></g><g transform="translate(-68.795 -45.422)"><path style="display:inline;opacity:1;fill:url(#d);fill-opacity:1;stroke:#000;stroke-width:.264583px;stroke-linecap:butt;stroke-linejoin:miter;stroke-opacity:1" d="M115.168 116.544 76.722 81.188s-1.463-1.915-1.745-2.78c-.281-.864-1.242-6.285.857-9.029 2.1-2.744 15.642-13.046 15.642-13.046l14.605-10.058s1.94-1.94 5.629.545c3.69 2.486 27.16 18.724 27.16 18.724l11.915 9.191s2.693 2.48.499 4.357c-2.194 1.878-32.704 27.836-32.704 27.836s-4.368 5.752-.196 9.153"/><ellipse style="display:inline;fill:url(#e);fill-opacity:1;stroke:#5f2a15;stroke-width:.797;stroke-linecap:round;stroke-linejoin:round;stroke-miterlimit:4;stroke-dasharray:none;stroke-opacity:1;paint-order:stroke fill markers" cx="118.107" cy="61.912" rx="16.575" ry="12.959" transform="rotate(6.292)"/><path style="fill:none;stroke:#c574ff;stroke-width:.264583px;stroke-linecap:butt;stroke-linejoin:miter;stroke-opacity:1" d="m109.39 86.933.987-2.274s.638-1.741 1.392.08c.753 1.822 1.36-2.959 1.36-2.959s-1.967-.967-3.8.53"/><path style="fill:none;stroke:#c574ff;stroke-width:.264583px;stroke-linecap:butt;stroke-linejoin:miter;stroke-opacity:1" d="M109.329 82.31s1.623.625.124 1.429c-1.498.804-1.412.087-3.697 1.616-2.285 1.529.574-.996.574-.996l2.223-.675s.872-.645.33-1.08c-.543-.435-.253-.824.571-2.548.824-1.723.58-3.27.58-3.27s-.85-.78-1.078-1.769c-.228-.989-2.503-2.037-3.329-1.87-.826.167-1.524.07-3.172 1.353-1.649 1.282-2.12 2.318-2.12 2.318s-.583 1.235 1.383 1.45c1.966.214 3.374 2.382 1.165 5.426"/><path style="fill:none;stroke:#c574ff;stroke-width:.264583px;stroke-linecap:butt;stroke-linejoin:miter;stroke-opacity:1" d="M100.513 76.667s-1.405 1.414-2.065 3.708m2.065-3.708s-4.335 1.616-3.811-2.116c.523-3.733 3.415 1.611 2.112.772-1.302-.838-1.296-1.51-1.296-1.51"/><path style="fill:none;stroke:#c574ff;stroke-width:.264583px;stroke-linecap:butt;stroke-linejoin:miter;stroke-opacity:1" d="m100.513 76.667-.293-.634c-.293-.634.45-1.328.45-1.328l2.82-2.086s-4.133.96-6.061.16c-1.928-.8-1.646-1.322-1.646-1.322s3.296 2.627 7.07.005"/><path style="fill:none;fill-opacity:1;stroke:#c574ff;stroke-width:.264583px;stroke-linecap:butt;stroke-linejoin:miter;stroke-opacity:1" d="M102.853 71.462s-1.47-1.692-1.738-2.98c-.268-1.29-.456-1.863-1.594-2.238-1.138-.375-.865-.67-.865-.67l2.701.175 3.733.175s2.816.45 3.368-.091c.552-.542.13-1.496-1.752-2.112-1.883-.615-6.049.865-6.049.865 1.17-.73.19-1.64 4.519-2.108.913.106 1.702.072 3.319.976 0 0 1.174.82 1.35 1.247.177.427-.543 2.196-.543 2.196s3.105-1.856 4.255-1.747c1.15.11.592-2.015-.895-1.867-1.487.148-1.693.87-1.057.723.636-.147.882-.233.882-.233s-1.626 1.385-1.784.317c-.16-1.068 3.36-2.182 3.672-.074.31 2.108.899 1.387.899 1.387s-.229-1.499.83-1.64c1.059-.14 4.114.947 3.206 1.2-.908.254-2.044.169-2.116 1.056-.071.888 1.188 1.162 2.072.79.884-.372 2.15-1.518 2.15-1.518l-.646 1.196s-3.596 2.091-4.036-.033c-.441-2.124 1.323-1.763 1.323-1.763l-1.783-.313s.124 2.296-1.518 1.908c-1.643-.387-5.335.257-3.723 3.705 1.612 3.447 8.054 2.56 9.75.087 1.696-2.474 2.268-3.397 2.268-3.397l-1.944 3.928s-.72 1.576.02 2.032c.741.457 2.2-.418 1.966-.731-.235-.314-.476-2.151.742-1.071 1.22 1.08-.466 3.055-.466 3.055s-1.041 1.196-.541 1.832c.5.636 1.525 2.023 1.59.582.064-1.44-.233-.01-.233-.01s-1.893-.515-.479-1.452c1.414-.936 2.05 1.714 1.517 2.22-.533.506-1.154.658-1.154.658s.89 1.616-.637 2.633c-1.525 1.016-1.41.727-1.41.727s.535 1.895-1.348 1.958c-1.883.064-1.272 1.115-1.272 1.115s-2.527 2.318-2.888-.04c-.36-2.359-2.595.266-2.595.266l-4.53 2.55"/><path style="fill:none;stroke:#c574ff;stroke-width:.264583px;stroke-linecap:butt;stroke-linejoin:miter;stroke-opacity:1" d="M101.677 66.65s2.913 5.484 5.211 3.16c2.298-2.323-5.211-3.16-5.211-3.16zm-.591 1.728s-.363 1.238-.888 1.673c-.525.435-4.488 1.993-3.054-1.235 1.433-3.228 2.883-1.105 2.883-1.105s1.115 2.721-1.925 1.464m14.846 8.775-.226 2.855s.34.8.633-.378c.293-1.179.875-2.737-.407-2.477zm4.922-1.862c-3.315-.567-3.008.334-3.008.334s1.362 2.483 4.656 2.907c3.293.424-1.647-3.241-1.647-3.241zm4.162-.598s-2.068-1.518-2.252-.648c-.185.87 1.364 3.962 2.103 3.975.738.013.953-1.109.953-1.109s-.011-1.279-.939-.257c-.927 1.022-.509-.78-.214-.914.295-.134.564-.098.972.206.408.303-.623-1.253-.623-1.253zm-2.046-2.362-3.932 1.086s1.448.672 2.03.608c.581-.065 2.9-1.215 2.9-1.215s-.007-.463-.998-.479zm-4.214 6.025s-1.796 1.762.154 2.43c1.95.668 1.738 1.72 2.06-.489 0 0 .724-1.06 1.082-.866.565.306 1.294 1.145 1.088 1.301-.336.254-1.035-.462-1.035-.462s-.641-.134-.517.515c.124.648.62 1 1.108.743.487-.259 1.35-.32 1.295-.967-.055-.647-.548-1.331-1.005-1.462-.458-.132-4.23-.743-4.23-.743z"/></g><path style="fill:#e2e3ea;fill-opacity:1;stroke:#000;stroke-width:.264583px;stroke-linecap:butt;stroke-linejoin:miter;stroke-opacity:1" d="M76.343 78.457c-.874.059-1.78.1-2.625-.133-.925-.254-1.826-.71-2.544-1.345-.67-.594-1.533-2.206-1.533-2.206l-.608-1.381a5.493 5.493 0 0 1-.102-1.266s.014-.622.209-1.415c.15-.61.39-1.212.752-1.726.398-.567.95-1.024 1.513-1.428.51-.367 1.085-.641 1.664-.885.379-.16.77-.305 1.175-.376a8.566 8.566 0 0 1 2.152-.09c.476.038.957.112 1.404.28.215.081.57.118.597.346.098.812-.966 1.564-1.773 1.698-.29.049-.51-.322-.8-.37-.402-.067-.82.03-1.216.125-.234.056-.451.168-.673.26-.278.117-.574.205-.823.373a4.04 4.04 0 0 0-1.06 1.009c-.252.356-.4.78-.53 1.196a3.93 3.93 0 0 0-.19 1.004c-.019.48.021.972.155 1.434.108.37.285.728.513 1.04.263.36.613.649.962.925.302.24.618.471.97.63.376.17.782.281 1.19.332.379.047.77-.108 1.144-.03.194.04.538.251.538.251s.277.387.325.613a.967.967 0 0 1-.04.554 1.1 1.1 0 0 1-.446.525c-.088.05-.198.049-.3.056z" transform="translate(-68.795 -45.422)"/><path style="fill:none;stroke:#9c853a;stroke-width:.264583px;stroke-linecap:butt;stroke-linejoin:miter;stroke-opacity:1" d="M98.544 60.979c4.292.123-2.723 4.365-1.913-.782.81-5.147 6.426 1.843 6.426 1.843s-.156-4.32 3.679-4.968c3.834-.648 3.273 6.592.934 2.343" transform="translate(-68.795 -45.422)"/><path style="fill:none;stroke:#9c853a;stroke-width:.264583px;stroke-linecap:butt;stroke-linejoin:miter;stroke-opacity:1" d="M107.279 57.14s4.172-4.563 6.314-.239c2.142 4.325-5.032 2.175-2.019.808 3.014-1.368-.714 1.849 1.206.96m-8.637.041s-1.748-4.638-4.505-3.843c-2.756.795.94 3.952-.09 1.497" transform="translate(-68.795 -45.422)"/><path style="fill:none;stroke:#9c853a;stroke-width:.264583px;stroke-linecap:butt;stroke-linejoin:miter;stroke-opacity:1" d="M100.154 54.941s-2.01-2.241 1.185-3.625c3.196-1.383 5.727-.565 5.727-.565s6.897-.015 2.704-3.911" transform="translate(-68.795 -45.422)"/><path style="fill:none;stroke:#9c853a;stroke-width:.264583px;stroke-linecap:butt;stroke-linejoin:miter;stroke-opacity:1" d="M101.044 51.446s4.3-.689 4.916 1.941c.616 2.63-2.9 3.917-2.466.878.434-3.04 1.4-.41 1.4-.41m2.172-3.104c2.167 1.937.319 2.2.319 2.2m-6.341-1.505 1.828-2.27m4.194 1.575s3.743-5.838-1.138-2.96c-4.882 2.877.813.883.813.883m13.206 15.096-2.978-4.463s-1.452-1.74-3.933 1.083m7.424 3.65c-.5-.38-.883-.913-1.084-1.507a3.192 3.192 0 0 1-.053-1.856c.22-.799.78-1.513 1.536-1.852.617-.278 1.332-.305 1.925-.631.312-.172.58-.425.771-.727.19-.302.303-.653.323-1.01m-1.852 8.693a3.331 3.331 0 0 1 2.575.181c.501.257.927.638 1.336 1.025.41.387.81.789 1.28 1.1.393.261.84.458 1.31.497.234.019.474-.002.7-.07.225-.07.437-.187.608-.35.184-.174.318-.396.428-.625.11-.229.2-.467.31-.696a4.306 4.306 0 0 1 1.804-1.902c.78-.426 1.694-.6 2.576-.49" transform="translate(-68.795 -45.422)"/><path style="fill:none;stroke:#9c853a;stroke-width:.264583px;stroke-linecap:butt;stroke-linejoin:miter;stroke-opacity:1" d="M122.669 65.617a2.54 2.54 0 0 1 2.503.822c.333.39.538.87.75 1.336.213.467.444.94.813 1.295.415.401.994.626 1.571.611m-2.747 11.679s.716 3.38-.57 4.865c-1.287 1.485-3.824 4.188-3.56 1.847.263-2.341 2.882-5.806 2.244-3.695-.638 2.11-1.665 3.618-1.665 3.618m3.032-1.402s-2.17 4.87 1.328 2.584 1.413-4.303.39-3.164c-1.021 1.14-2.057 3.251-.618 2.427 1.439-.825 1.762-2.102 1.245-1.838" transform="translate(-68.795 -45.422)"/><path style="fill:none;stroke:#9c853a;stroke-width:.264583px;stroke-linecap:butt;stroke-linejoin:miter;stroke-opacity:1" d="M125.04 86.593c-3.643 5.976-1.406 4.419-3.643 5.976-2.237 1.558-6.2 1.61-7.482 3.693s-1.644 5.362-.052 6.13" transform="translate(-68.795 -45.422)"/><path style="fill:none;stroke:#9c853a;stroke-width:.264583px;stroke-linecap:butt;stroke-linejoin:miter;stroke-opacity:1" d="M116.627 94.636s-2.973-3.312.777-5.279c3.751-1.966 3.06 4.776 1.057 3.169-2.002-1.607.057-2.086.057-2.086m-5.1 7.103s-5.624.071-2.348-2.187c3.276-2.259 1.254.99 1.254.99m4.303-1.71s-1.463 2.876-1.297 5.912" transform="translate(-68.795 -45.422)"/><path style="fill:none;stroke:#9c853a;stroke-width:.264583px;stroke-linecap:butt;stroke-linejoin:miter;stroke-opacity:1" d="M117.668 94.153s.548 8.036 2.198 2.91c1.65-5.128-1.18-1.05-1.18-1.05m3.654-4.059s-1.153 4.64 1.102 5.934c2.256 1.294 4.007-3.83 4.007-3.83" transform="translate(-68.795 -45.422)"/><path style="fill:none;stroke:#000;stroke-width:.264583px;stroke-linecap:butt;stroke-linejoin:miter;stroke-opacity:1" d="M77.114 71.56s30.73 31.497 37.86 34.191" transform="translate(-68.795 -45.422)"/></svg>