<svg viewBox="0 0 496 496" xml:space="preserve" xmlns="http://www.w3.org/2000/svg"><path style="fill:#7300ab;fill-opacity:1" d="m263 240-5-39c19-19 42-45 44-86 1-15-2-27-6-40-2-9-8-33-18-29-34 14-41 80-32 122-23 24-62 48-68 95-3 24 4 46 16 61 14 21 41 39 76 31 5 29 16 72-13 84-10 5-33 5-36-8 32 5 31-39 9-44-18-5-29 13-30 25-1 23 20 39 43 38 25 0 42-16 42-47-1-17-6-31-7-51 20-9 38-23 41-51 3-32-18-63-56-61zm6-153c9-9 24-8 25 8 0 16-8 30-15 41-8 11-16 20-26 26-6-24 2-61 16-75zm-76 201c1-21 11-36 21-48 11-14 24-24 37-34l5 36c-17 7-36 21-36 48 1 9 5 18 10 26 5 6 12 14 21 13 0-6-7-7-10-10-16-16-4-48 19-50l10 78c-48 8-79-22-77-59zm84 57-10-77c10 1 18 4 24 10 20 19 12 60-14 67z"/></svg>