<svg version="1.0" viewBox="0 0 686 1280" xmlns="http://www.w3.org/2000/svg"><path d="M3442 7870c3-4926 3-4930-17-4924a2569 2569 0 0 1-370 137c-205 57-244 62-495 61-468-1-731-64-1164-281-180-89-256-133-396-226-518-344-860-777-965-1223-95-398 14-773 310-1069C477 213 615 128 789 71c269-88 619-92 979-11 442 99 910 333 1272 638 122 103 311 296 382 392 180 243 354 612 419 890 20 84 20 141 29 3705l9 3623c8 18 202-27 351-81 466-169 981-465 1312-754 501-438 896-1345 979-2245 15-165 7-560-15-693-67-413-203-839-551-1720-108-273-235-603-235-611 0-2 8-4 18-4 51 0 160 153 286 399 390 767 747 1894 822 2595 26 246 8 646-41 926-109 609-374 1163-879 1835-195 261-348 442-771 920-337 381-460 525-609 719-361 469-521 815-621 1345-47 249-55 340-55 606v255h-432l4-4930z" style="fill:#384dda;fill-opacity:1" transform="matrix(.1 0 0 -.1 0 1280)"/></svg>